<?xml version="1.0" encoding="UTF-8"?>
<svg width="1200" height="800" viewBox="0 0 1200 800" xmlns="http://www.w3.org/2000/svg">
  <!-- Background -->
  <rect width="1200" height="800" fill="#f8f9fa"/>
  
  <!-- Table -->
  <rect x="300" y="600" width="600" height="50" fill="#B25B5B"/>
  
  <!-- Left person (Interviewer) -->
  <g transform="translate(350, 300)">
    <!-- Orange shirt -->
    <rect x="0" y="150" width="150" height="250" fill="#F4A261"/>
    <!-- Head -->
    <circle cx="75" cy="100" r="60" fill="#FFE0D0"/>
    <!-- Hair -->
    <path d="M25,80 Q75,0 125,80" fill="#6D4C41" stroke="#6D4C41" stroke-width="2"/>
  </g>
  
  <!-- Right person (Interviewee) -->
  <g transform="translate(700, 300)">
    <!-- Green shirt -->
    <rect x="0" y="150" width="150" height="250" fill="#2A9D8F"/>
    <!-- Head -->
    <circle cx="75" cy="100" r="60" fill="#FFE0D0"/>
    <!-- Tie -->
    <path d="M60,200 L90,200 L75,300 Z" fill="#264653"/>
  </g>
  
  <!-- Speech bubbles -->
  <g transform="translate(500, 100)">
    <!-- Lightbulb bubble -->
    <circle cx="50" cy="50" r="40" fill="#457B9D" opacity="0.8"/>
    <path d="M35,50 L65,50 M50,35 L50,65" stroke="#FFF" stroke-width="3"/>
    
    <!-- Document bubble -->
    <circle cx="150" cy="50" r="40" fill="#457B9D" opacity="0.8"/>
    <rect x="135" y="35" width="30" height="30" fill="#FFF"/>
    
    <!-- Profile bubble -->
    <circle cx="250" cy="50" r="40" fill="#457B9D" opacity="0.8"/>
    <circle cx="250" cy="40" r="15" fill="#FFF"/>
    <path d="M230,70 Q250,90 270,70" fill="#FFF"/>
    
    <!-- Rocket bubble -->
    <circle cx="350" cy="50" r="40" fill="#457B9D" opacity="0.8"/>
    <path d="M350,30 L340,60 L350,55 L360,60 Z" fill="#FFF"/>
  </g>
</svg> 